M48
;GenerationSoftware,Autodesk,EAGLE,9.3.2*%
;CreationDate,2019-05-01T21:46:50Z*%
FMAT,2
ICI,OFF
METRIC,TZ,000.000
T6C0.300
T5C0.350
T4C0.600
T3C0.813
T2C0.890
T1C1.016
%
G90
M71
T1
X33230Y11630
X35770Y11630
X33230Y9090
X35770Y9090
X33230Y6550
X35770Y6550
X33230Y4010
X35770Y4010
X33230Y1470
X35770Y1470
T2
X6876Y2613
X4876Y2613
X2876Y2613
T3
X30416Y4010
X30416Y1470
T4
X34862Y20701
X36259Y20701
X33465Y20701
T5
X16226Y18367
X20259Y16106
X27635Y21273
X11112Y18436
X35230Y15545
X32855Y15507
X28016Y19876
X15646Y6350
X23292Y2146
X26606Y2159
X17653Y17958
X27686Y2477
X21844Y16319
X34417Y3111
X34954Y7810
X28397Y16637
X22444Y17145
X29667Y18910
X30226Y16624
X31924Y5795
X9919Y17907
X34785Y17656
X27876Y7493
X24638Y8382
X22365Y11176
X23558Y18479
X22161Y18860
X12179Y15875
X10033Y15875
X22225Y1791
X18860Y2715
X28130Y3556
X17564Y1791
X9970Y2159
X20371Y1991
X15100Y1816
X11278Y2045
T6
X16002Y19749
M30