G04 EAGLE Gerber RS-274X export*
G75*
%MOMM*%
%FSLAX34Y34*%
%LPD*%
%INBottom Copper*%
%IPPOS*%
%AMOC8*
5,1,8,0,0,1.08239X$1,22.5*%
G01*
%ADD10C,1.524000*%
%ADD11R,5.000000X5.000000*%
%ADD12R,0.900000X2.000000*%
%ADD13R,2.000000X0.900000*%
%ADD14C,1.489991*%
%ADD15C,1.108000*%
%ADD16R,0.700000X0.700000*%
%ADD17P,1.924489X8X202.500000*%
%ADD18R,1.778000X1.778000*%
%ADD19C,0.152400*%
%ADD20C,0.508000*%
%ADD21C,0.756400*%
%ADD22C,0.706400*%


D10*
X332300Y116300D03*
X357700Y116300D03*
X332300Y90900D03*
X357700Y90900D03*
X332300Y65500D03*
X357700Y65500D03*
X332300Y40100D03*
X357700Y40100D03*
X332300Y14700D03*
X357700Y14700D03*
D11*
X162100Y138000D03*
D12*
X87100Y213000D03*
X99800Y213000D03*
X112500Y213000D03*
X125200Y213000D03*
X137900Y213000D03*
X150600Y213000D03*
X163300Y213000D03*
X176000Y213000D03*
X188700Y213000D03*
X201400Y213000D03*
X214100Y213000D03*
X226800Y213000D03*
X239500Y213000D03*
X252200Y213000D03*
D13*
X262200Y185150D03*
X262200Y172450D03*
X262200Y159750D03*
X262200Y147050D03*
X262200Y134350D03*
X262200Y121650D03*
X262200Y108950D03*
X262200Y96250D03*
X262200Y83550D03*
X262200Y70850D03*
D12*
X252200Y43000D03*
X239500Y43000D03*
X226800Y43000D03*
X214100Y43000D03*
X201400Y43000D03*
X188700Y43000D03*
X176000Y43000D03*
X163300Y43000D03*
X150600Y43000D03*
X137900Y43000D03*
X125200Y43000D03*
X112500Y43000D03*
X99800Y43000D03*
X87100Y43000D03*
D14*
X68760Y26130D03*
X48760Y26130D03*
X28760Y26130D03*
D15*
X348615Y201470D02*
X348615Y212550D01*
X362585Y212550D02*
X362585Y201470D01*
X334645Y201470D02*
X334645Y212550D01*
D16*
X362610Y188315D03*
X318110Y188315D03*
X318110Y153315D03*
X362610Y153315D03*
D17*
X304165Y40100D03*
D18*
X304165Y14700D03*
D19*
X362610Y153315D02*
X362610Y158725D01*
X363245Y119845D02*
X357700Y116300D01*
X363245Y152680D02*
X362610Y153315D01*
X363245Y152680D02*
X363245Y119845D01*
D20*
X87100Y43000D02*
X85830Y41730D01*
X272828Y41275D02*
X306197Y73055D01*
X272828Y41275D02*
X241078Y9525D01*
X346768Y103632D02*
X357700Y116300D01*
X316992Y103632D02*
X306197Y92837D01*
X316992Y103632D02*
X346768Y103632D01*
X306197Y92837D02*
X306197Y73055D01*
X83725Y26130D02*
X68760Y26130D01*
X83725Y26130D02*
X87100Y29505D01*
X87100Y43000D01*
X83725Y26130D02*
X100330Y9525D01*
X241078Y9525D01*
D19*
X86995Y212895D02*
X87100Y213000D01*
X354753Y166582D02*
X362610Y158725D01*
X318110Y153315D02*
X318110Y164567D01*
X320125Y166582D02*
X354753Y166582D01*
X320125Y166582D02*
X318110Y164567D01*
X309151Y116300D02*
X332300Y116300D01*
X309151Y116300D02*
X308568Y116247D01*
X303276Y121539D01*
X303276Y151266D01*
D21*
X99187Y179070D03*
D20*
X98171Y211371D02*
X99800Y213000D01*
X98171Y211371D02*
X98171Y181864D01*
X99187Y180848D02*
X99187Y179070D01*
X99187Y180848D02*
X98171Y181864D01*
D19*
X312357Y170752D02*
X318770Y177165D01*
X312357Y170752D02*
X312357Y160347D01*
X303276Y151266D01*
X318770Y177165D02*
X347853Y177165D01*
X347853Y176558D01*
D21*
X347853Y176558D03*
D19*
X275320Y70850D02*
X262200Y70850D01*
X278765Y74295D02*
X278765Y74930D01*
X278765Y74295D02*
X275320Y70850D01*
D21*
X278765Y74930D03*
D19*
X262200Y83550D02*
X246650Y83550D01*
X246380Y83820D01*
D21*
X246380Y83820D03*
D19*
X252079Y172450D02*
X262200Y172450D01*
X252079Y172450D02*
X223647Y144018D01*
X223647Y111760D01*
D21*
X223647Y111760D03*
D19*
X252200Y203305D02*
X252200Y213000D01*
X252200Y203305D02*
X234950Y186055D01*
X235585Y184785D01*
D21*
X235585Y184785D03*
D19*
X238760Y212260D02*
X239500Y213000D01*
X238760Y212260D02*
X238760Y200660D01*
X226695Y188595D01*
X221615Y188595D01*
D21*
X221615Y188595D03*
D19*
X226060Y212260D02*
X226800Y213000D01*
X226060Y212260D02*
X226060Y200660D01*
X222250Y196850D01*
X218440Y196850D01*
X176530Y179578D02*
X176276Y179324D01*
D21*
X176530Y179578D03*
D19*
X176276Y179324D02*
X192786Y179324D01*
X214277Y185447D02*
X214277Y192687D01*
X214277Y185447D02*
X221007Y178717D01*
X227683Y178717D02*
X232410Y173990D01*
X214277Y192687D02*
X218440Y196850D01*
X221007Y178717D02*
X227683Y178717D01*
X232410Y173990D02*
X232410Y163195D01*
X224790Y155575D01*
X216535Y155575D01*
X192786Y179324D01*
X186160Y210460D02*
X188700Y213000D01*
X186160Y210460D02*
X186160Y198225D01*
X175260Y187325D01*
X137160Y174625D02*
X121793Y159258D01*
X121793Y158750D01*
D21*
X121793Y158750D03*
D19*
X172720Y187325D02*
X175260Y187325D01*
X172720Y187325D02*
X171637Y186242D01*
X167700Y177987D02*
X164338Y174625D01*
X137160Y174625D01*
X167700Y177987D02*
X171637Y186242D01*
X176000Y201400D02*
X176000Y213000D01*
X176000Y201400D02*
X165100Y190500D01*
X136525Y190500D01*
D21*
X100330Y158750D03*
D19*
X104775Y158750D02*
X136525Y190500D01*
X104775Y158750D02*
X100330Y158750D01*
X188700Y43000D02*
X188700Y27200D01*
X188750Y27150D01*
X188595Y27150D01*
D21*
X188595Y27150D03*
X281305Y35560D03*
D19*
X176000Y43000D02*
X176000Y18266D01*
X175641Y17907D01*
D21*
X175641Y17907D03*
D19*
X281305Y35560D02*
X321945Y76200D01*
X336550Y76200D01*
X351155Y90805D01*
X351587Y90900D02*
X357700Y90900D01*
X351587Y90900D02*
X351155Y90805D01*
X99800Y43000D02*
X99800Y27410D01*
X99695Y27305D01*
X99695Y21590D01*
D21*
X99695Y21590D03*
D19*
X201400Y22219D02*
X201400Y43000D01*
X201400Y22219D02*
X203708Y19911D01*
D21*
X203708Y19911D03*
D19*
X151130Y42470D02*
X150600Y43000D01*
X151130Y42470D02*
X151130Y18161D01*
X151003Y18161D01*
D21*
X151003Y18161D03*
D19*
X112776Y42724D02*
X112500Y43000D01*
D21*
X112776Y20447D03*
D19*
X112776Y42724D01*
X91087Y155453D02*
X91087Y162555D01*
X95636Y167104D01*
X112500Y134040D02*
X112500Y43000D01*
X105267Y167104D02*
X95636Y167104D01*
X91087Y155453D02*
X112500Y134040D01*
X105267Y167104D02*
X125194Y187031D01*
X125194Y200124D01*
X125200Y200130D02*
X125200Y213000D01*
X125200Y200130D02*
X125194Y200124D01*
X112423Y159787D02*
X112423Y153316D01*
X112423Y159787D02*
X134819Y182182D01*
X112423Y153316D02*
X125200Y140539D01*
X160882Y182291D02*
X162262Y183670D01*
X160882Y182291D02*
X134819Y182182D01*
D21*
X162262Y183670D03*
D19*
X125200Y140539D02*
X125200Y43000D01*
X210820Y151257D02*
X201195Y160882D01*
X202592Y161063D01*
D21*
X202592Y161063D03*
D19*
X190500Y96520D02*
X147066Y96520D01*
X134938Y54928D02*
X134725Y54715D01*
X134725Y84179D02*
X147066Y96520D01*
X190500Y96520D02*
X210820Y116840D01*
X210820Y151257D01*
X134725Y84179D02*
X134725Y54715D01*
X134938Y54928D02*
X134938Y45963D01*
X137900Y43000D01*
X163300Y200130D02*
X163300Y213000D01*
X163300Y200130D02*
X160655Y197485D01*
X160020Y197485D01*
D22*
X160020Y197485D03*
D21*
X276352Y212725D03*
D19*
X285325Y221698D01*
X343452Y221698D02*
X349885Y215265D01*
X348615Y213995D01*
X348615Y207010D01*
X343452Y221698D02*
X285325Y221698D01*
D21*
X111125Y184359D03*
X352298Y155448D03*
D19*
X328549Y155448D01*
X328549Y155067D01*
D21*
X328549Y155067D03*
D19*
X112500Y185734D02*
X111125Y184359D01*
X112500Y185734D02*
X112500Y213000D01*
X263345Y43000D02*
X298450Y78105D01*
X298450Y141732D01*
X292608Y147574D01*
X292608Y169790D01*
X292363Y169790D01*
X280162Y181991D01*
X280162Y198755D01*
D21*
X280162Y198755D03*
D19*
X263345Y43000D02*
X252200Y43000D01*
X311190Y188315D02*
X318110Y188315D01*
X280293Y198886D02*
X280162Y198755D01*
X300619Y198886D02*
X311190Y188315D01*
X300619Y198886D02*
X280293Y198886D01*
X318110Y188315D02*
X320370Y186055D01*
X360350Y186055D02*
X362610Y188315D01*
X360350Y186055D02*
X320370Y186055D01*
X239500Y55140D02*
X239500Y43000D01*
X239500Y55140D02*
X231140Y63500D01*
X156464Y63500D01*
D21*
X156464Y63500D03*
D19*
X231648Y25273D02*
X232918Y21463D01*
X231648Y25273D02*
X226800Y30121D01*
D21*
X232918Y21463D03*
X266065Y21590D03*
D19*
X266198Y21577D02*
X282732Y3302D01*
X266198Y21577D02*
X266065Y21590D01*
X226800Y30121D02*
X226800Y43000D01*
X322616Y3302D02*
X332300Y14700D01*
X322616Y3302D02*
X282732Y3302D01*
X214100Y27835D02*
X214100Y43000D01*
X222250Y19685D02*
X222250Y17907D01*
X222250Y19685D02*
X214100Y27835D01*
D21*
X222250Y17907D03*
X276860Y24765D03*
D19*
X278765Y26670D02*
X336745Y26670D01*
X278765Y26670D02*
X276860Y24765D01*
X357065Y12065D02*
X357700Y14700D01*
X357065Y12065D02*
X351350Y12065D01*
X336745Y26670D01*
X201400Y183410D02*
X201400Y213000D01*
X201400Y183410D02*
X211455Y173355D01*
X211455Y170815D01*
X218440Y163830D01*
X218440Y163195D01*
D21*
X218440Y163195D03*
X344170Y31115D03*
D19*
X346524Y33469D02*
X346524Y71569D01*
X346524Y33469D02*
X344170Y31115D01*
X346524Y71569D02*
X349885Y74930D01*
X349885Y77764D01*
X349544Y78105D01*
D21*
X349544Y78105D03*
X283972Y166370D03*
D19*
X214100Y213000D02*
X213465Y212365D01*
X213465Y201592D01*
X209324Y197451D01*
X209324Y183741D01*
X223802Y172085D02*
X224437Y171450D01*
X223802Y172085D02*
X220980Y172085D01*
D21*
X224437Y171450D03*
X296672Y189103D03*
X302260Y166243D03*
D19*
X220980Y172085D02*
X209324Y183741D01*
D21*
X319242Y57948D03*
D19*
X318588Y58603D01*
X317337Y58603D01*
X319783Y55718D02*
X304165Y40100D01*
X319783Y55718D02*
X317337Y58603D01*
X296672Y189103D02*
X297244Y189675D01*
X302260Y184658D02*
X302260Y166243D01*
X302260Y184658D02*
X297244Y189675D01*
M02*
