G04 EAGLE Gerber RS-274X export*
G75*
%MOMM*%
%FSLAX34Y34*%
%LPD*%
%INSoldermask Bottom*%
%IPPOS*%
%AMOC8*
5,1,8,0,0,1.08239X$1,22.5*%
G01*
%ADD10C,1.727200*%
%ADD11R,5.203200X5.203200*%
%ADD12R,1.103200X2.203200*%
%ADD13R,2.203200X1.103200*%
%ADD14C,1.591969*%
%ADD15C,1.311200*%
%ADD16R,0.903200X0.903200*%
%ADD17P,2.144431X8X202.500000*%
%ADD18R,1.981200X1.981200*%
%ADD19C,0.959600*%
%ADD20C,0.909600*%


D10*
X332300Y116300D03*
X357700Y116300D03*
X332300Y90900D03*
X357700Y90900D03*
X332300Y65500D03*
X357700Y65500D03*
X332300Y40100D03*
X357700Y40100D03*
X332300Y14700D03*
X357700Y14700D03*
D11*
X162100Y138000D03*
D12*
X87100Y213000D03*
X99800Y213000D03*
X112500Y213000D03*
X125200Y213000D03*
X137900Y213000D03*
X150600Y213000D03*
X163300Y213000D03*
X176000Y213000D03*
X188700Y213000D03*
X201400Y213000D03*
X214100Y213000D03*
X226800Y213000D03*
X239500Y213000D03*
X252200Y213000D03*
D13*
X262200Y185150D03*
X262200Y172450D03*
X262200Y159750D03*
X262200Y147050D03*
X262200Y134350D03*
X262200Y121650D03*
X262200Y108950D03*
X262200Y96250D03*
X262200Y83550D03*
X262200Y70850D03*
D12*
X252200Y43000D03*
X239500Y43000D03*
X226800Y43000D03*
X214100Y43000D03*
X201400Y43000D03*
X188700Y43000D03*
X176000Y43000D03*
X163300Y43000D03*
X150600Y43000D03*
X137900Y43000D03*
X125200Y43000D03*
X112500Y43000D03*
X99800Y43000D03*
X87100Y43000D03*
D14*
X68760Y26130D03*
X48760Y26130D03*
X28760Y26130D03*
D15*
X348615Y201470D02*
X348615Y212550D01*
X362585Y212550D02*
X362585Y201470D01*
X334645Y201470D02*
X334645Y212550D01*
D16*
X362610Y188315D03*
X318110Y188315D03*
X318110Y153315D03*
X362610Y153315D03*
D17*
X304165Y40100D03*
D18*
X304165Y14700D03*
D19*
X99187Y179070D03*
X347853Y176558D03*
X278765Y74930D03*
X246380Y83820D03*
X223647Y111760D03*
X235585Y184785D03*
X221615Y188595D03*
X176530Y179578D03*
X121793Y158750D03*
X100330Y158750D03*
X188595Y27150D03*
X281305Y35560D03*
X175641Y17907D03*
X99695Y21590D03*
X203708Y19911D03*
X151003Y18161D03*
X112776Y20447D03*
X162262Y183670D03*
X202592Y161063D03*
D20*
X160020Y197485D03*
D19*
X276352Y212725D03*
X111125Y184359D03*
X352298Y155448D03*
X328549Y155067D03*
X280162Y198755D03*
X156464Y63500D03*
X232918Y21463D03*
X266065Y21590D03*
X222250Y17907D03*
X276860Y24765D03*
X218440Y163195D03*
X344170Y31115D03*
X349544Y78105D03*
X283972Y166370D03*
X224437Y171450D03*
X296672Y189103D03*
X302260Y166243D03*
X319242Y57948D03*
M02*
