G04 EAGLE Gerber RS-274X export*
G75*
%MOMM*%
%FSLAX34Y34*%
%LPD*%
%INSoldermask Top*%
%IPPOS*%
%AMOC8*
5,1,8,0,0,1.08239X$1,22.5*%
G01*
%ADD10C,1.727200*%
%ADD11R,1.378741X3.286869*%
%ADD12R,1.381059X3.290909*%
%ADD13R,1.379531X3.293600*%
%ADD14R,1.372900X3.285169*%
%ADD15R,1.371731X3.285181*%
%ADD16R,1.365950X3.295419*%
%ADD17R,1.362491X3.293631*%
%ADD18R,1.363481X3.289191*%
%ADD19C,1.591969*%
%ADD20C,1.311200*%
%ADD21R,1.382869X3.532472*%
%ADD22R,1.374059X3.533481*%
%ADD23R,1.375250X3.532509*%
%ADD24R,1.371094X3.537000*%
%ADD25R,1.371469X3.532053*%
%ADD26R,1.363581X3.536791*%
%ADD27R,0.903200X0.903200*%
%ADD28R,1.503200X1.703200*%
%ADD29P,2.144431X8X202.500000*%
%ADD30R,1.981200X1.981200*%
%ADD31C,0.959600*%
%ADD32C,0.909600*%


D10*
X332300Y116300D03*
X357700Y116300D03*
X332300Y90900D03*
X357700Y90900D03*
X332300Y65500D03*
X357700Y65500D03*
X332300Y40100D03*
X357700Y40100D03*
X332300Y14700D03*
X357700Y14700D03*
D11*
X274084Y137754D03*
D12*
X248695Y137775D03*
D13*
X223288Y137788D03*
D14*
X197855Y137746D03*
D15*
X172449Y137746D03*
D16*
X147020Y137797D03*
D17*
X121602Y137788D03*
D18*
X96207Y137766D03*
D19*
X68760Y26130D03*
X48760Y26130D03*
X28760Y26130D03*
D20*
X348615Y201470D02*
X348615Y212550D01*
X362585Y212550D02*
X362585Y201470D01*
X334645Y201470D02*
X334645Y212550D01*
D21*
X121866Y212598D03*
D22*
X147310Y183393D03*
D23*
X172704Y212597D03*
D24*
X198125Y183375D03*
D25*
X223523Y212600D03*
D26*
X248962Y183376D03*
D27*
X318110Y187680D03*
X362610Y187680D03*
X362610Y152680D03*
X318110Y152680D03*
D28*
X314300Y214503D03*
X295300Y214503D03*
D29*
X304165Y40100D03*
D30*
X304165Y14700D03*
D31*
X99187Y179070D03*
X347853Y176558D03*
X278765Y74930D03*
X246380Y83820D03*
X223647Y111760D03*
X235585Y184785D03*
X221615Y188595D03*
X176530Y179578D03*
X121793Y158750D03*
X100330Y158750D03*
X188595Y27150D03*
X281305Y35560D03*
X175641Y17907D03*
X99695Y21590D03*
X203708Y19911D03*
X151003Y18161D03*
X112776Y20447D03*
X162262Y183670D03*
X202592Y161063D03*
D32*
X160020Y197485D03*
D31*
X276352Y212725D03*
X111125Y184359D03*
X352298Y155448D03*
X328549Y155067D03*
X280162Y198755D03*
X156464Y63500D03*
X232918Y21463D03*
X266065Y21590D03*
X222250Y17907D03*
X276860Y24765D03*
X218440Y163195D03*
X344170Y31115D03*
X349544Y78105D03*
X283972Y166370D03*
X224437Y171450D03*
X296672Y189103D03*
X302260Y166243D03*
X319242Y57948D03*
M02*
