G04 EAGLE Gerber RS-274X export*
G75*
%MOMM*%
%FSLAX34Y34*%
%LPD*%
%INSolderpaste Bottom*%
%IPPOS*%
%AMOC8*
5,1,8,0,0,1.08239X$1,22.5*%
G01*
%ADD10R,3.166009X3.164769*%
%ADD11R,0.900000X2.000000*%
%ADD12R,2.000000X0.900000*%
%ADD13R,0.700000X0.700000*%

G36*
X51315Y6429D02*
X51315Y6429D01*
X51315Y6430D01*
X51315Y16330D01*
X51317Y16377D01*
X51320Y16443D01*
X51322Y16461D01*
X51323Y16466D01*
X51324Y16471D01*
X51324Y16476D01*
X51329Y16511D01*
X51329Y16516D01*
X51330Y16521D01*
X51335Y16555D01*
X51359Y16665D01*
X51393Y16773D01*
X51436Y16877D01*
X51488Y16977D01*
X51549Y17073D01*
X51618Y17162D01*
X51694Y17246D01*
X51777Y17322D01*
X51867Y17391D01*
X51963Y17452D01*
X52063Y17504D01*
X52167Y17547D01*
X52275Y17581D01*
X52385Y17606D01*
X52497Y17620D01*
X52610Y17625D01*
X57260Y17625D01*
X57265Y17630D01*
X57265Y34630D01*
X57261Y34635D01*
X57260Y34635D01*
X40260Y34635D01*
X40255Y34631D01*
X40255Y34630D01*
X40255Y17630D01*
X40259Y17625D01*
X40260Y17625D01*
X44910Y17625D01*
X45023Y17620D01*
X45135Y17606D01*
X45245Y17581D01*
X45353Y17547D01*
X45457Y17504D01*
X45557Y17452D01*
X45653Y17391D01*
X45742Y17322D01*
X45826Y17246D01*
X45902Y17162D01*
X45971Y17073D01*
X46032Y16978D01*
X46084Y16877D01*
X46127Y16773D01*
X46161Y16665D01*
X46185Y16555D01*
X46200Y16443D01*
X46205Y16330D01*
X46205Y6430D01*
X46209Y6425D01*
X46210Y6425D01*
X51310Y6425D01*
X51315Y6429D01*
G37*
G36*
X37265Y17629D02*
X37265Y17629D01*
X37265Y17630D01*
X37265Y34630D01*
X37261Y34635D01*
X37260Y34635D01*
X32610Y34635D01*
X32540Y34638D01*
X32497Y34640D01*
X32385Y34655D01*
X32275Y34679D01*
X32167Y34713D01*
X32063Y34756D01*
X31963Y34808D01*
X31867Y34869D01*
X31778Y34938D01*
X31694Y35014D01*
X31618Y35097D01*
X31549Y35187D01*
X31488Y35283D01*
X31436Y35383D01*
X31393Y35487D01*
X31359Y35594D01*
X31335Y35705D01*
X31320Y35817D01*
X31315Y35930D01*
X31315Y45830D01*
X31311Y45835D01*
X31310Y45835D01*
X26210Y45835D01*
X26205Y45831D01*
X26205Y45830D01*
X26205Y35930D01*
X26205Y35925D01*
X26203Y35876D01*
X26200Y35817D01*
X26199Y35811D01*
X26199Y35806D01*
X26198Y35801D01*
X26194Y35766D01*
X26193Y35761D01*
X26192Y35757D01*
X26192Y35756D01*
X26192Y35752D01*
X26192Y35751D01*
X26187Y35717D01*
X26186Y35712D01*
X26186Y35707D01*
X26186Y35705D01*
X26161Y35595D01*
X26127Y35487D01*
X26084Y35383D01*
X26032Y35283D01*
X25971Y35187D01*
X25902Y35098D01*
X25826Y35014D01*
X25743Y34938D01*
X25653Y34869D01*
X25558Y34808D01*
X25457Y34756D01*
X25353Y34713D01*
X25246Y34679D01*
X25135Y34655D01*
X25023Y34640D01*
X24980Y34638D01*
X24910Y34635D01*
X20260Y34635D01*
X20255Y34631D01*
X20255Y34630D01*
X20255Y17630D01*
X20259Y17625D01*
X20260Y17625D01*
X37260Y17625D01*
X37265Y17629D01*
G37*
G36*
X77265Y17629D02*
X77265Y17629D01*
X77265Y17630D01*
X77265Y34630D01*
X77261Y34635D01*
X77260Y34635D01*
X72610Y34635D01*
X72540Y34638D01*
X72539Y34638D01*
X72497Y34640D01*
X72385Y34654D01*
X72275Y34679D01*
X72167Y34713D01*
X72063Y34756D01*
X71963Y34808D01*
X71867Y34869D01*
X71778Y34938D01*
X71694Y35014D01*
X71618Y35097D01*
X71549Y35187D01*
X71488Y35282D01*
X71436Y35383D01*
X71393Y35487D01*
X71359Y35594D01*
X71334Y35705D01*
X71320Y35817D01*
X71315Y35930D01*
X71315Y45830D01*
X71311Y45835D01*
X71310Y45835D01*
X66210Y45835D01*
X66205Y45831D01*
X66205Y45830D01*
X66205Y35930D01*
X66205Y35925D01*
X66203Y35876D01*
X66200Y35817D01*
X66199Y35811D01*
X66199Y35806D01*
X66198Y35801D01*
X66193Y35766D01*
X66193Y35761D01*
X66192Y35757D01*
X66192Y35756D01*
X66192Y35752D01*
X66191Y35752D01*
X66192Y35751D01*
X66187Y35717D01*
X66186Y35712D01*
X66186Y35707D01*
X66185Y35705D01*
X66161Y35595D01*
X66127Y35487D01*
X66084Y35383D01*
X66032Y35283D01*
X65971Y35187D01*
X65902Y35098D01*
X65826Y35014D01*
X65742Y34938D01*
X65653Y34869D01*
X65557Y34808D01*
X65457Y34756D01*
X65353Y34713D01*
X65246Y34679D01*
X65135Y34655D01*
X65023Y34640D01*
X64980Y34638D01*
X64910Y34635D01*
X60260Y34635D01*
X60255Y34631D01*
X60255Y34630D01*
X60255Y17630D01*
X60259Y17625D01*
X60260Y17625D01*
X77260Y17625D01*
X77265Y17629D01*
G37*
D10*
X162119Y138013D03*
D11*
X87100Y213000D03*
X99800Y213000D03*
X112500Y213000D03*
X125200Y213000D03*
X137900Y213000D03*
X150600Y213000D03*
X163300Y213000D03*
X176000Y213000D03*
X188700Y213000D03*
X201400Y213000D03*
X214100Y213000D03*
X226800Y213000D03*
X239500Y213000D03*
X252200Y213000D03*
D12*
X262200Y185150D03*
X262200Y172450D03*
X262200Y159750D03*
X262200Y147050D03*
X262200Y134350D03*
X262200Y121650D03*
X262200Y108950D03*
X262200Y96250D03*
X262200Y83550D03*
X262200Y70850D03*
D11*
X252200Y43000D03*
X239500Y43000D03*
X226800Y43000D03*
X214100Y43000D03*
X201400Y43000D03*
X188700Y43000D03*
X176000Y43000D03*
X163300Y43000D03*
X150600Y43000D03*
X137900Y43000D03*
X125200Y43000D03*
X112500Y43000D03*
X99800Y43000D03*
X87100Y43000D03*
D13*
X362610Y188315D03*
X318110Y188315D03*
X318110Y153315D03*
X362610Y153315D03*
M02*
